HIERARCHY
ROOT Hips
{
	OFFSET	0.000000	0.000000	0.000000
	CHANNELS 6 Xposition Yposition Zposition Zrotation Xrotation Yrotation
	JOINT LeftHip
	{
		OFFSET	4.740440	-3.195970	-0.322709
		CHANNELS 3 Zrotation Xrotation Yrotation
		JOINT LeftKnee
		{
			OFFSET	-1.605680	-15.592300	1.005510
			CHANNELS 3 Zrotation Xrotation Yrotation
			JOINT LeftAnkle
			{
				OFFSET	-0.632401	-16.421000	-1.413730
				CHANNELS 3 Zrotation Xrotation Yrotation
				End Site
				{
					OFFSET	0.008423	-2.933000	-1.776750
				}
			}
		}
	}
	JOINT RightHip
	{
		OFFSET	-4.740440	-3.195970	-0.322709
		CHANNELS 3 Zrotation Xrotation Yrotation
		JOINT RightKnee
		{
			OFFSET	1.605680	-15.592300	1.005510
			CHANNELS 3 Zrotation Xrotation Yrotation
			JOINT RightAnkle
			{
				OFFSET	0.632401	-16.421000	-1.413730
				CHANNELS 3 Zrotation Xrotation Yrotation
				End Site
				{
					OFFSET	-0.008423	-2.933000	-1.776750
				}
			}
		}
	}
	JOINT Chest
	{
		OFFSET	0.000000	3.468200	0.078401
		CHANNELS 3 Zrotation Xrotation Yrotation
		JOINT LeftCollar
		{
			OFFSET	3.857650	15.070700	-0.011583
			CHANNELS 3 Zrotation Xrotation Yrotation
			JOINT LeftShoulder
			{
				OFFSET	3.979720	-1.940530	-0.165223
				CHANNELS 3 Zrotation Xrotation Yrotation
				JOINT LeftElbow
				{
					OFFSET	0.615844	-10.986600	-0.673886
					CHANNELS 3 Zrotation Xrotation Yrotation
					JOINT LeftWrist
					{
						OFFSET	0.826843	-10.854500	1.034220
						CHANNELS 3 Zrotation Xrotation Yrotation
						End Site
						{
							OFFSET	-1.679080	-8.456540	0.936217
						}
					}
				}
			}
		}
		JOINT RightCollar
		{
			OFFSET	-3.857650	15.070700	-0.011583
			CHANNELS 3 Zrotation Xrotation Yrotation
			JOINT RightShoulder
			{
				OFFSET	-3.979720	-1.940530	-0.165223
				CHANNELS 3 Zrotation Xrotation Yrotation
				JOINT RightElbow
				{
					OFFSET	-0.615845	-10.986600	-0.673886
					CHANNELS 3 Zrotation Xrotation Yrotation
					JOINT RightWrist
					{
						OFFSET	-0.826843	-10.854500	1.034220
						CHANNELS 3 Zrotation Xrotation Yrotation
						End Site
						{
							OFFSET	1.679080	-8.456540	0.936217
						}
					}
				}
			}
		}
		JOINT Neck
		{
			OFFSET	0.000000	15.101400	0.055730
			CHANNELS 3 Zrotation Xrotation Yrotation
			JOINT Head
			{
				OFFSET	0.000000	4.185120	1.488260
				CHANNELS 3 Zrotation Xrotation Yrotation
				End Site
				{
					OFFSET	0.000000	7.773420	-0.106016
				}
			}
		}
	}
}
MOTION
Frames:     16
Frame Time: 0.016667
1.940136	37.925785	-5.927322	4.202626	-7.791655	-2.823229	-1.492694	5.285627	2.162183	-3.157026	4.354546	8.206123	3.204617	-1.833848	2.622430	-13.797455	-6.022277	-8.344098	-0.271473	13.424414	-0.342066	6.342756	2.699907	2.739455	-5.667513	6.205286	-4.889568	-5.375234	7.644530	7.620190	5.845151	-4.217990	5.838959	-4.214483	-13.220140	-12.856055	14.884492	8.197429	-21.469151	-1.511916	6.525804	7.643920	-2.557457	-4.333615	4.752728	0.572236	-10.517404	11.744666	-13.725855	3.051496	11.502278	-2.650747	11.384116	2.784867	4.812693	6.374024	-26.156858	
1.940136	37.925785	-5.927322	4.202626	-7.791655	-2.823229	-1.492694	5.285627	2.162183	-3.157026	4.354546	8.206123	3.204617	-1.833848	2.622430	-13.797455	-6.022277	-8.344098	-0.271473	13.424414	-0.342066	6.342756	2.699907	2.739455	-5.667513	6.205286	-4.889568	-5.375234	7.644530	7.620190	5.845151	-4.217990	5.838959	-4.218112	-13.224435	-12.857491	14.884806	8.194304	-21.469782	-1.511916	6.525804	7.643920	-2.557457	-4.333615	4.752728	0.572236	-10.517404	11.744666	-13.725855	3.051496	11.502278	-2.647262	11.385013	2.801293	4.811135	6.371861	-26.173956	
1.940136	37.925785	-5.927322	4.202626	-7.791655	-2.823229	-1.492694	5.285627	2.162183	-3.157026	4.354546	8.206123	3.204617	-1.833848	2.622430	-13.797455	-6.022277	-8.344098	-0.271473	13.424414	-0.342066	6.342756	2.699907	2.739455	-5.667513	6.205286	-4.889568	-5.375234	7.644530	7.620190	5.845151	-4.217990	5.838959	-4.221253	-13.228146	-12.858747	14.880105	8.173985	-21.470192	-1.511916	6.525804	7.643920	-2.557457	-4.333615	4.752728	0.572236	-10.517404	11.744666	-13.725855	3.051496	11.502278	-2.646111	11.385313	2.806738	4.810622	6.371143	-26.179625	
1.940136	37.925785	-5.927322	4.202626	-7.791655	-2.823229	-1.492694	5.285627	2.162183	-3.157026	4.354546	8.206123	3.204617	-1.833848	2.622430	-13.797455	-6.022277	-8.344098	-0.271473	13.424414	-0.342066	6.342756	2.699907	2.739455	-5.667513	6.205286	-4.889568	-5.375234	7.644530	7.620190	5.845151	-4.217990	5.838959	-4.221253	-13.228146	-12.858747	14.877809	8.165826	-21.470133	-1.511916	6.525804	7.643920	-2.557457	-4.333615	4.752728	0.572236	-10.517404	11.744666	-13.725855	3.051496	11.502278	-2.644972	11.385605	2.812102	4.805541	6.315647	-26.138266	
1.940136	37.925785	-5.927322	4.202626	-7.791655	-2.823229	-1.492694	5.285627	2.162183	-3.156113	4.353848	8.200818	3.203980	-1.832735	2.627617	-13.797455	-6.022277	-8.344098	-0.271473	13.424414	-0.342066	6.342756	2.699907	2.739455	-5.667513	6.205286	-4.889568	-5.375234	7.644530	7.620190	5.845151	-4.217990	5.838959	-4.221253	-13.228146	-12.858747	14.871412	8.143161	-21.469942	-1.511916	6.525804	7.643920	-2.557457	-4.333615	4.752728	0.572236	-10.517404	11.744666	-13.725855	3.051496	11.502278	-2.641433	11.386516	2.828777	4.798978	6.074514	-25.973768	
1.940136	37.925785	-5.927322	4.202626	-7.791655	-2.823229	-1.492694	5.285627	2.162183	-3.153728	4.351952	8.186978	3.202330	-1.829760	2.641137	-13.797455	-6.022277	-8.344098	-0.271473	13.424414	-0.342066	6.342756	2.699907	2.739455	-5.667513	6.205286	-4.889568	-5.375234	7.644530	7.620190	5.845151	-4.217990	5.838959	-4.221253	-13.228146	-12.858747	14.869389	8.136012	-21.469902	-1.511916	6.525804	7.643920	-2.557457	-4.333615	4.752728	0.572236	-10.517404	11.744666	-13.796718	2.980401	11.519117	-2.637857	11.387452	2.845666	4.801324	5.973308	-25.927502	
1.940136	37.925785	-5.927322	4.202626	-7.791655	-2.823229	-1.492694	5.285627	2.162183	-3.150699	4.349561	8.169544	3.200224	-1.826007	2.658166	-13.797455	-6.022277	-8.344098	-0.271473	13.424414	-0.342066	6.342756	2.699907	2.739455	-5.667513	6.205286	-4.889568	-5.375234	7.644530	7.620190	5.845151	-4.217990	5.838959	-4.221253	-13.228146	-12.858747	14.863887	8.116562	-21.469728	-1.508923	6.527661	7.639782	-2.560368	-4.335226	4.756468	0.572236	-10.517404	11.744666	-14.215162	2.560921	11.377256	-2.635266	11.388121	2.857881	4.846194	5.576935	-25.739262	
1.940136	37.925785	-5.927322	4.202626	-7.791655	-2.823229	-1.492694	5.285627	2.162183	-3.142957	4.343595	8.124397	3.194829	-1.816533	2.702288	-13.797455	-6.022277	-8.344098	-0.271473	13.424414	-0.342066	6.342756	2.699907	2.739455	-5.667513	6.205286	-4.889568	-5.375234	7.644530	7.620190	5.845151	-4.217990	5.838959	-4.221069	-13.227536	-12.863924	14.861498	8.111613	-21.464415	-1.505127	6.530004	7.634572	-2.564061	-4.337262	4.761174	0.572236	-10.517404	11.744666	-14.414933	2.328071	11.290949	-2.632304	11.388886	2.871862	4.860090	5.427332	-25.675623	
1.940136	37.925785	-5.927322	4.202626	-7.791655	-2.823229	-1.492694	5.285627	2.162183	-3.150328	4.396791	7.993283	3.203324	-1.873156	2.840496	-13.797455	-6.022277	-8.344098	-0.271473	13.424414	-0.342066	6.342756	2.699907	2.739455	-5.667513	6.205286	-4.889568	-5.375234	7.644530	7.620190	5.845151	-4.217990	5.838959	-4.220648	-13.226036	-12.876904	14.857391	8.107985	-21.460114	-1.373270	6.691321	7.613728	-2.715438	-4.475254	4.760209	0.571952	-10.522025	11.744759	-15.266802	1.395356	10.851450	-2.613735	11.390476	2.943900	4.871992	4.915430	-25.427353	
1.940136	37.925785	-5.927322	4.202626	-7.791655	-2.823229	-1.492694	5.285627	2.162183	-3.183063	4.513155	7.852000	3.232397	-2.002847	2.997388	-13.797455	-6.022277	-8.344098	-0.271473	13.424414	-0.342066	6.342756	2.699907	2.739455	-5.667513	6.205286	-4.889568	-5.375234	7.644530	7.620190	5.822116	-4.140280	5.813931	-4.201570	-13.307176	-12.858987	14.857091	8.108225	-21.465219	-1.211777	6.886943	7.589136	-2.900577	-4.641950	4.752472	0.589683	-10.581486	11.735581	-15.675697	1.000987	10.652815	-2.501669	11.419221	3.079564	4.783545	4.686958	-25.449501	
1.940136	37.925785	-5.927322	4.202626	-7.791655	-2.823229	-1.473334	5.152023	2.116312	-3.242512	4.795416	7.709335	3.262741	-2.152835	3.206054	-13.797455	-6.022277	-8.344098	-0.271473	13.424414	-0.342066	6.342756	2.699907	2.739455	-5.631624	6.244489	-4.881480	-5.305494	7.718543	7.632233	5.656224	-4.073357	5.731192	-4.205416	-13.538711	-12.799912	14.894167	8.159515	-21.524885	-1.066858	7.051542	7.535436	-3.187485	-4.578999	4.650169	0.732518	-10.971544	11.699725	-17.523006	-0.766511	9.487935	-2.478211	11.382834	3.242769	4.762609	4.105461	-25.217918	
1.940136	37.925785	-5.927322	4.202626	-7.791655	-2.823229	-1.446591	4.978927	2.099783	-3.286530	5.049327	7.627751	3.280559	-2.236527	3.320720	-13.797455	-6.022277	-8.344098	-0.271473	13.424414	-0.342066	6.342756	2.699907	2.739455	-5.622122	6.305959	-4.875113	-5.252671	7.809347	7.706059	5.544257	-4.113001	5.610480	-4.247032	-13.735812	-12.745821	14.934358	8.170772	-21.519981	-0.985041	7.087348	7.502988	-3.311943	-4.571301	4.577240	0.809851	-11.173634	11.644304	-18.344219	-1.470817	8.975023	-2.453438	11.285243	3.278407	4.736054	3.942790	-25.101288	
1.967151	37.918385	-5.942824	4.202626	-7.791655	-2.823229	-1.419585	4.795173	2.089993	-3.415699	5.528564	7.412631	3.367787	-2.549591	3.589227	-13.921336	-6.118440	-8.029492	-0.084759	13.538161	-0.678696	6.342756	2.699907	2.739455	-5.658690	6.481164	-4.820894	-5.088306	7.831694	7.722893	5.391977	-3.884479	5.553931	-4.539124	-14.477468	-12.779916	15.036572	8.160633	-21.285461	-0.702201	7.245355	7.389966	-3.616268	-4.499182	4.255085	1.065988	-12.014245	11.506467	-21.218678	-3.547658	7.058231	-2.231839	10.823582	3.294011	4.590370	3.621968	-24.687042	
1.983127	37.914192	-5.951311	4.202626	-7.791655	-2.823229	-1.390523	4.632406	2.106439	-3.472811	5.798337	7.294971	3.397578	-2.659163	3.710432	-13.994099	-6.172145	-7.850182	0.024624	13.601442	-0.871133	6.342756	2.699907	2.739455	-5.638746	6.666996	-4.799292	-5.005140	7.882949	7.816872	5.334525	-3.945243	5.419590	-4.709994	-14.808513	-12.782616	15.049183	8.159351	-21.120756	-0.646726	7.193821	7.327223	-3.686669	-4.488018	4.164069	1.203675	-12.626336	11.263810	-23.230740	-4.751720	5.542387	-2.121701	10.650826	3.365041	4.487035	3.404414	-24.630184	
2.047694	37.899265	-5.974209	4.202626	-7.791655	-2.823229	-1.365210	4.513179	2.125973	-3.588571	6.217084	6.987904	3.486823	-2.982069	4.044293	-14.279081	-6.342752	-7.307136	0.424833	13.818693	-1.462486	6.341402	2.686844	2.740094	-5.628856	6.884066	-4.775038	-4.908689	7.908559	7.910343	5.467549	-3.490698	5.320513	-5.252028	-16.031462	-12.978056	14.843489	7.868550	-20.128637	-0.450519	7.359910	7.268312	-4.078425	-4.414718	3.842942	1.463045	-13.637224	11.177299	-24.983711	-5.697319	3.881130	-1.940997	10.475133	3.657067	4.299062	2.719733	-24.451626	
2.066623	37.888107	-5.948915	4.202626	-7.791655	-2.823229	-1.339938	4.393715	2.144565	-3.633629	6.426632	6.872638	3.515780	-3.084696	4.161728	-14.428829	-6.430122	-7.170619	0.627267	14.082555	-1.709114	6.314639	2.536247	2.838572	-5.613166	6.999941	-4.760000	-4.879510	7.909472	7.955522	5.505290	-3.307577	5.264215	-5.395856	-16.518267	-12.976100	13.826469	6.586450	-18.035601	-0.361246	7.353122	7.234784	-4.254238	-4.371555	3.753821	1.564028	-14.088205	11.036884	-25.678078	-6.091638	3.047910	-1.882678	10.259466	3.690705	4.252462	2.612487	-24.357819	
